<?xml version="1.0" encoding="UTF-8" standalone="no"?><!DOCTYPE svg PUBLIC "-//W3C//DTD SVG 1.1//EN" "http://www.w3.org/Graphics/SVG/1.1/DTD/svg11.dtd"><svg width="100%" height="100%" viewBox="0 0 512 512" version="1.1" xmlns="http://www.w3.org/2000/svg" xmlns:xlink="http://www.w3.org/1999/xlink" xml:space="preserve" style="fill-rule:evenodd;clip-rule:evenodd;stroke-linejoin:round;stroke-miterlimit:2;"><rect x="0" y="0" width="512" height="512"/><path d="M270.872,69.227c3.54,8.033 -0.166,18.033 -8.026,21.86c2.88,4.893 6.273,9.413 9.36,14.173c4.706,6.78 8.82,14.12 13.826,20.647c9.587,-5.267 19.674,-9.76 29.38,-14.814c-1.173,-3.44 -2.046,-6.773 -1.473,-10.44c1.24,-7.933 8.827,-14.046 16.84,-13.62c8.3,0.434 15.373,8.027 15.507,16.287c0.14,6.607 -3.867,13.013 -10.02,15.533c-3.374,1.48 -6.774,1.24 -10.32,0.627c-3.554,14.433 -6.54,28.98 -9.767,43.48c-0.6,2.673 -1.053,5.427 -1.9,8.033c-1.053,0.854 -3.48,0.32 -4.833,0.46c-37.3,-0.033 -74.614,-0.133 -111.907,0.06c-2.367,-9.386 -4.18,-18.893 -6.413,-28.313c-1.727,-7.867 -3.687,-15.68 -5.507,-23.527c-3.833,0.627 -7.587,0.447 -11.02,-1.506c-6.66,-3.66 -10.173,-11.82 -8.093,-19.174c1.793,-6.42 7.553,-11.453 14.266,-11.933c7.547,-0.7 14.86,4.933 16.76,12.147c0.987,4.1 0.327,8.24 -1.333,12.06c9.9,4.866 19.753,9.873 29.74,14.553c7.587,-11.56 14.707,-23.4 22.573,-34.767c-5.273,-2.56 -8.953,-8.56 -9.166,-14.386c-0.634,-7.26 4.34,-14.794 11.406,-16.8c7.827,-2.44 17,1.733 20.12,9.36Z" style="fill:#fff;fill-rule:nonzero;"/><path d="M94.112,191.207c10.66,-0.1 21.34,-0.167 32.007,0.006c7.287,-0.02 14.36,4.847 17.04,11.6c0.92,2.187 1.013,4.814 1.24,7.167c1.94,20.02 4.313,39.993 6.2,60.027c1.493,16 3.38,31.973 4.647,47.993c3.153,33.7 6.693,66.967 9.86,100.667c0.06,0.92 -0.027,2.206 -1.1,2.48c-1.06,0.166 -2.16,0.153 -3.227,0.16c-14.887,-0.067 -29.78,-0.007 -44.667,-0.014c-4.74,-0.073 -9.206,0.22 -13.866,-0.933c-14.654,-3.647 -26.074,-16.773 -27.96,-31.713c-2.74,-23.3 -5.027,-46.66 -7.627,-69.974c-2.847,-26.46 -5.98,-52.88 -8.633,-79.333c-0.56,-5.88 -1.36,-12.233 0,-18.033c0.666,-3.307 1.94,-6.327 3.36,-9.374c2.133,-4.4 5.58,-8.213 9.133,-11.526c6.38,-5.86 14.92,-9.227 23.593,-9.2Zm4.987,97.826c-8.127,1.714 -13.18,10.3 -11.54,18.294c1.513,7.153 8.66,12.313 15.9,11.82c3.527,-0.444 6.836,-1.951 9.487,-4.32c4.16,-3.9 5.746,-10.1 3.9,-15.514c-2.347,-7.313 -10.114,-12.3 -17.747,-10.28Zm-5.333,-45.326c-4.334,1.066 -8.16,3.813 -10.027,7.933c-1.307,3.08 -2.033,6.533 -1.193,9.84c1.32,6.4 7.1,11.32 13.553,11.893c6.413,0.607 13.04,-3.253 15.48,-9.26c2.847,-6.56 0.113,-15.213 -6.08,-18.846c-3.46,-2.1 -7.84,-2.687 -11.733,-1.56Zm10.486,91.133c-3.606,0.673 -6.913,2.533 -9.18,5.44c-3.84,5.107 -4.18,12.713 -0.506,18c2.98,4.24 8.306,7.133 13.546,6.653c7.227,-0.526 13.54,-6.34 14.414,-13.58c0.353,-4.06 -1.074,-8.3 -3.607,-11.486c-3.52,-4.227 -9.293,-6.114 -14.667,-5.027Zm279.86,-143.547c9.1,-0.24 18.227,-0.08 27.334,-0.126c4.933,0.026 9.506,-0.24 14.333,1.06c14.693,3.74 27.067,17.193 28.633,32.42c0.814,5.7 -0.16,10.946 -0.726,16.573c-0.46,6.28 -1.347,12.513 -1.994,18.773c-1.973,15.947 -3.426,32.04 -5.246,48.007c-1.58,12.64 -2.96,25.327 -4.22,38.007c-1.48,13.786 -3.047,27.553 -4.48,41.346c-1.374,13.054 -9.88,24.954 -21.78,30.487c-5.467,2.62 -11.834,3.593 -17.854,3.44c-17.106,-0 -34.213,-0.027 -51.32,0.027c-0.22,-0.834 -0.64,-1.734 -0.573,-2.6c4.2,-42.907 9.027,-85.734 12.627,-128.7c2.606,-24.9 4.8,-49.82 7.526,-74.674c0.687,-5.106 0.007,-10.393 2.8,-14.933c3.074,-5.427 8.68,-8.92 14.94,-9.107Zm18.134,143.534c-3.654,0.653 -6.96,2.353 -9.314,5.266c-2.88,3.747 -4.14,8.76 -2.926,13.38c1.213,4.807 4.746,8.867 9.44,10.554c6.946,2.686 15.446,-0.547 18.84,-7.18c3.62,-6.48 1.42,-15.514 -4.674,-19.687c-3.286,-2.147 -7.493,-3.12 -11.366,-2.333Zm8.186,-91.094c-4.966,1.294 -9.2,4.894 -10.593,9.927c-1.593,5.427 -0.213,11.433 3.887,15.387c2.853,2.893 7.02,4.493 11.053,4.466c6.447,-0.4 12.64,-4.7 14.467,-11.046c1.72,-5.38 -0.267,-11.487 -4.32,-15.28c-3.82,-3.427 -9.54,-4.887 -14.494,-3.454Zm-2.873,45.047c-4.293,0.667 -8.253,3.053 -10.627,6.733c-3.7,5.414 -3.386,13.654 1.167,18.494c3.873,4.413 10.287,6.193 15.867,4.326c6.653,-2.04 11.793,-8.406 11.086,-15.546c-0.653,-8.514 -8.866,-15.607 -17.493,-14.007Z" style="fill:#fff;"/><path d="M176.099,192.453c4.1,-0.713 7.813,1.547 10.013,4.88c1.694,2.44 1.627,5.147 1.8,8c0.32,12.114 1.18,24.187 1.56,36.3c1.294,31.954 2.654,63.22 3.954,95.034c1.066,22.006 1.686,43.993 2.713,66.006c0.18,3.834 -3.113,8.547 -7.353,7.907c-3.28,-0.28 -5.58,-3.487 -5.9,-6.573c-1.7,-30.314 -4.76,-60.394 -6.88,-90.667c-1.66,-20.933 -3.68,-41.733 -5.247,-62.673c-0.74,-8.847 -1.573,-17.694 -2.053,-26.554c-0.34,-3.38 -0.614,-6.713 -0.727,-10.113c-0.413,-4.227 -0.707,-8.447 -0.52,-12.7c0.407,-4.54 4.147,-8.253 8.64,-8.847Zm50.033,4.86c1.94,3.447 1.247,8.18 1.367,12.02c0.627,64.674 0.827,129.347 1.307,194.02c0.073,3.467 -2.994,7.54 -6.687,7.314c-4.32,0.386 -7.627,-3.94 -7.48,-7.994c-0.467,-18.9 -1.073,-37.78 -1.753,-56.673c-0.06,-10.127 -0.62,-20.227 -0.834,-30.347c-0.666,-17.213 -1.08,-34.446 -1.886,-51.653c-0.034,-7.98 -0.727,-15.92 -0.76,-23.893c-0.16,-4.254 -0.534,-8.52 -0.594,-12.774c-0.066,-8.22 -0.693,-16.446 -0.713,-24.666c-0.193,-3.967 2.18,-7.987 5.867,-9.554c4.393,-2.033 9.906,-0.026 12.166,4.2Zm36.84,-0.913c1.814,2.727 1.567,5.807 1.6,8.933c-0.213,24.22 -0.286,48.447 -0.486,72.667c-0.14,40 -0.294,80 -0.374,120c-0.12,3.5 0.22,7.213 -2.28,10.007c-2.86,3.34 -8.093,3.693 -11.3,0.646c-1.84,-1.993 -2.753,-4.606 -2.64,-7.32c0.04,-66.446 -0.173,-132.886 -0.733,-199.333c-0.207,-3.247 1.147,-6.333 3.853,-8.18c3.887,-2.853 9.807,-1.373 12.36,2.58Zm37.614,-0.873c2.413,2.586 2.72,5.746 2.546,9.14c-0.993,33.56 -2.446,67.113 -3.753,100.66c-0.807,30.906 -2.047,61.786 -3.027,92.673c-0.18,3.007 0.34,6.98 -1.32,9.6c-2.106,3.867 -8.653,4.333 -11.013,0.473c-2.48,-3.08 -1.473,-7.72 -1.527,-11.406c0.28,-37.334 0.22,-74.667 0.527,-112c0.4,-26.674 0.413,-53.327 0.6,-80c0.093,-3.72 0.36,-7.2 3.353,-9.814c3.787,-3.573 10.207,-3.266 13.614,0.674Zm30.853,-2.88c4.7,-1.287 9.64,1.386 11.653,5.713c1.42,2.82 0.9,5.927 0.794,8.973c-4.667,62.9 -10.42,125.8 -15.12,188.667c-0.46,3.807 0.386,8.847 -1.987,12c-1.747,2.753 -5.667,3.407 -8.327,1.62c-2.58,-1.633 -3.666,-5.4 -3.393,-8.287c0.387,-4.886 0.4,-9.78 0.68,-14.666c1.713,-43.307 3.513,-86.607 5.213,-130c0.567,-6.327 0.42,-12.68 0.994,-19c0.426,-9.447 0.793,-18.907 1.466,-28.334c0.134,-3.473 -0.226,-6.606 0.814,-9.993c0.986,-3.347 3.793,-5.96 7.213,-6.693Z" style="fill:#fff;fill-rule:nonzero;"/></svg>